<svg width="85" height="85" xmlns="http://www.w3.org/2000/svg" xmlns:xlink="http://www.w3.org/1999/xlink"><defs><path id="a" d="M0 85h85V0H0z"/></defs><g fill="none" fill-rule="evenodd" opacity=".7"><mask id="b" fill="#fff"><use xlink:href="#a"/></mask><path d="M64.768 41.318l-30.82-21.454a1.382 1.382 0 0 0-1.445-.084 1.432 1.432 0 0 0-.745 1.264v42.909c0 .53.287 1.019.745 1.264a1.36 1.36 0 0 0 1.445-.084l30.82-21.455a1.43 1.43 0 0 0 .617-1.18c0-.475-.233-.915-.617-1.18zM34.555 61.242V23.754l26.936 18.744-26.936 18.744z" fill="#FFF" mask="url(#b)"/><path d="M42.5 0C19.065 0 0 19.065 0 42.5S19.065 85 42.5 85 85 65.935 85 42.5 65.935 0 42.5 0zm0 82.163c-21.873 0-39.663-17.79-39.663-39.663 0-21.873 17.79-39.663 39.663-39.663 21.873 0 39.663 17.79 39.663 39.663 0 21.873-17.79 39.663-39.663 39.663z" fill="#FFF" mask="url(#b)"/></g></svg>