<svg width="30" height="28" xmlns="http://www.w3.org/2000/svg"><path d="M12.917 1.226v4.992c0 .677-.55 1.226-1.23 1.226-2.422 0-3.74 2.478-3.922 7.368h3.923c.678 0 1.229.55 1.229 1.226v10.541c0 .677-.55 1.226-1.23 1.226H1.23c-.68 0-1.229-.55-1.229-1.226V16.038c0-2.344.237-4.496.703-6.395.479-1.947 1.213-3.65 2.183-5.06.997-1.45 2.245-2.588 3.709-3.381C8.069.404 9.782 0 11.688 0c.678 0 1.229.549 1.229 1.226zM28.77 7.444c.678 0 1.229-.55 1.229-1.226V1.226A1.226 1.226 0 0 0 28.77 0c-1.904 0-3.618.405-5.091 1.202-1.464.793-2.713 1.93-3.71 3.38-.97 1.411-1.704 3.114-2.183 5.062-.466 1.9-.703 4.05-.703 6.394v10.541c0 .677.55 1.226 1.23 1.226H28.77c.678 0 1.228-.55 1.228-1.226V16.038c0-.677-.55-1.226-1.228-1.226h-3.867c.18-4.89 1.478-7.368 3.867-7.368z" opacity=".2"/></svg>